HIERARCHY
ROOT Hips
{
	OFFSET -3.958830 18.904000 13.208200
	CHANNELS 6 Xposition Yposition Zposition Zrotation Yrotation Xrotation 
	JOINT LHipJoint
	{
		OFFSET 0.000000 0.000000 0.000000
		CHANNELS 3 Zrotation Yrotation Xrotation
		JOINT LeftUpLeg
		{
			OFFSET 1.800000 -1.400000 0.085000
			CHANNELS 3 Zrotation Yrotation Xrotation
			JOINT LeftLeg
			{
				OFFSET 2.215000 -6.000000 0.000000
				CHANNELS 3 Zrotation Yrotation Xrotation
				JOINT LeftFoot
				{
					OFFSET 2.500000 -6.900000 0.000000
					CHANNELS 3 Zrotation Yrotation Xrotation
					JOINT LeftToeBase
					{
						OFFSET 0.200000 -0.500000 1.950000
						CHANNELS 3 Zrotation Yrotation Xrotation
						End Site
						{
							OFFSET 0.000000 0.000000 0.000000
						}
					}
				}
			}
		}
	}
	JOINT RHipJoint
	{
		OFFSET 0.000000 0.000000 0.000000
		CHANNELS 3 Zrotation Yrotation Xrotation
		JOINT RightUpLeg
		{
			OFFSET -1.800000 -1.400000 0.085000
			CHANNELS 3 Zrotation Yrotation Xrotation
			JOINT RightLeg
			{
				OFFSET -2.215000 -6.000000 0.000000
				CHANNELS 3 Zrotation Yrotation Xrotation
				JOINT RightFoot
				{
					OFFSET -2.500000 -6.900000 0.000000
					CHANNELS 3 Zrotation Yrotation Xrotation
					JOINT RightToeBase
					{
						OFFSET -0.200000 -0.500000 1.950000
						CHANNELS 3 Zrotation Yrotation Xrotation
						End Site
						{
							OFFSET 0.000000 0.000000 0.000000
						}
					}
				}
			}
		}
	}
	JOINT LowerBack
	{
		OFFSET 0.000000 0.000000 0.000000
		CHANNELS 3 Zrotation Yrotation Xrotation
		JOINT Spine
		{
			OFFSET -0.087000 1.940000 -0.288900
			CHANNELS 3 Zrotation Yrotation Xrotation
			JOINT Spine1
			{
				OFFSET 0.000000 1.950000 0.060000
				CHANNELS 3 Zrotation Yrotation Xrotation
				JOINT Neck
				{
					OFFSET 0.000000 0.000000 0.000000
					CHANNELS 3 Zrotation Yrotation Xrotation
					JOINT Neck1
					{
						OFFSET 0.000000 1.600000 0.340000
						CHANNELS 3 Zrotation Yrotation Xrotation
						JOINT Head
						{
							OFFSET 0.000000 1.667000 -0.240000
							CHANNELS 3 Zrotation Yrotation Xrotation
							End Site
							{
								OFFSET 0.000000 0.000000 0.000000
							}
						}
					}
				}
				JOINT LeftShoulder
				{
					OFFSET 0.000000 0.000000 0.000000
					CHANNELS 3 Zrotation Yrotation Xrotation
					JOINT LeftArm
					{
						OFFSET 2.700000 1.550000 -0.730000
						CHANNELS 3 Zrotation Yrotation Xrotation
						JOINT LeftForeArm
						{
							OFFSET 5.450000 0.000000 0.000000
							CHANNELS 3 Zrotation Yrotation Xrotation
							JOINT LeftHand
							{
								OFFSET 3.450000 0.000000 0.000000
								CHANNELS 3 Zrotation Yrotation Xrotation
								JOINT LeftHandIndex1
								{
									OFFSET 0.750000 0.000000 0.000000
									CHANNELS 3 Zrotation Yrotation Xrotation
									End Site
									{
										OFFSET 0.000000 0.000000 0.000000
									}
								}
							}
						}
					}
				}
				JOINT RightShoulder
				{
					OFFSET 0.000000 0.000000 0.000000
					CHANNELS 3 Zrotation Yrotation Xrotation
					JOINT RightArm
					{
						OFFSET -2.700000 1.550000 -0.730000
						CHANNELS 3 Zrotation Yrotation Xrotation
						JOINT RightForeArm
						{
							OFFSET -5.450000 0.000000 0.000000
							CHANNELS 3 Zrotation Yrotation Xrotation
							JOINT RightHand
							{
								OFFSET -3.450000 0.000000 0.000000
								CHANNELS 3 Zrotation Yrotation Xrotation
								JOINT RightHandIndex1
								{
									OFFSET -0.750000 0.000000 0.000000
									CHANNELS 3 Zrotation Yrotation Xrotation
									End Site
									{
										OFFSET 0.000000 0.000000 0.000000
									}
								}
							}
						}
					}
				}
			}
		}
	}
}
MOTION
Frames: 4
Frame Time: 0.016667
-0.860840 17.238500 -3.175660 -11.288427 20.212782 -17.756180 -15.141495 12.501945 2.520241 24.317392 5.666548 -26.043136 3.771099 11.149342 42.698716 0.503805 8.383896 1.623205 -0.061070 0.064550 -0.423640 18.472274 -11.370295 2.293986 -15.201589 3.497319 5.976255 16.177806 -13.281577 31.896471 -1.104266 -7.927633 1.702345 -0.015270 0.688920 0.176160 -4.335839 0.363917 -7.683174 -0.490211 1.700426 15.103095 -31.467850 12.990153 21.834722 10.500285 -5.640163 -16.140363 -14.700439 3.546457 44.550760 2.720940 -5.123150 -0.674320 2.017780 -14.938072 9.123978 -24.868806 -18.936367 2.877375 154.074898 -36.099792 -136.921801 -3.859013 3.119537 0.180150 0.217380 -0.005640 0.367890 -22.527605 24.327440 4.292019 -13.041744 10.469055 -13.569064 -42.365409 38.908731 -14.945414 2.895768 -2.373697 -0.146070 0.445550 0.135340 0.343120 
-0.785770 17.116510 -3.184730 -10.888693 20.486916 -18.962651 -15.021667 12.263739 2.372645 23.258527 5.538646 -26.264539 5.639738 11.066192 46.593297 0.446046 9.022664 1.449994 -0.139990 -0.126960 -0.418760 18.586541 -11.605561 2.374292 -17.347367 3.949396 7.300386 17.773932 -14.450906 32.384466 -1.108232 -8.418093 1.520141 -0.029420 0.779180 0.159790 -4.717470 1.258988 -7.678982 0.580625 2.504338 15.905341 -29.787758 13.367025 23.396616 9.791846 -5.744026 -14.996759 -13.094110 2.830552 42.500699 1.489200 -5.086720 -0.452260 1.471532 -13.559193 8.771613 -25.980597 -15.947382 2.778461 156.219821 -36.680541 -143.091981 -3.953892 3.109138 0.228830 0.282930 -0.135790 0.300660 -20.041134 22.764036 5.658218 -4.205285 15.122978 -14.015171 -55.716040 49.303041 -26.861560 2.288865 -1.902065 -0.293030 0.494240 0.243440 0.253820 
-0.716500 17.019090 -3.187090 -10.356701 20.216504 -19.854383 -14.853194 12.073113 2.341662 22.836190 5.161136 -25.766306 5.932138 11.441989 49.042215 0.297257 9.768267 1.229850 -0.485250 -0.664680 -0.550140 18.727216 -11.899560 2.388701 -18.636488 4.109847 7.890303 17.283629 -15.023306 33.473716 -0.991302 -8.624679 1.397967 -0.212110 1.010080 0.147930 -5.204704 2.033417 -7.753196 1.754860 3.238711 17.336080 -28.596777 13.824076 23.914473 7.651777 -5.697239 -14.835642 -12.333984 2.361886 41.975636 3.318640 -6.695360 0.885080 0.668150 -12.823815 8.145737 -25.609587 -13.419192 2.756270 157.765307 -35.724519 -145.866371 -4.201269 2.904640 0.354790 0.381560 -0.320600 0.113810 -14.706709 22.015578 9.034059 5.123583 16.160575 -14.110469 -82.797985 54.861820 -50.275191 1.967147 -0.894073 -0.557900 0.644050 0.593540 0.144890 
-0.638950 16.915950 -3.180500 -10.028278 19.894704 -22.381349 -14.704707 12.015072 2.147796 22.457272 4.700726 -23.918901 7.230429 11.091710 51.823767 0.280426 10.290596 1.079415 -0.665850 -0.923030 -0.669280 18.861437 -12.251285 2.334304 -19.161979 3.681104 9.942590 15.076651 -15.046930 35.068535 -0.923953 -8.846322 1.328879 -0.278340 1.161070 0.125720 -5.650108 2.674905 -7.663016 2.943289 3.423531 19.715577 -26.664852 14.060308 26.242942 5.351081 -6.267089 -14.352169 -12.402121 3.377625 39.114004 6.187290 -7.047950 1.645980 1.876036 -11.469786 7.575369 -27.372308 -14.110124 3.634092 158.309689 -34.230473 -146.664290 -4.328203 2.853323 0.384970 0.452850 -0.454310 0.040460 -10.925208 20.779610 11.635399 14.824872 17.290740 -12.341335 -107.876375 48.488124 -75.201800 2.087582 -0.846659 -0.707830 0.705870 0.766800 0.111040 
